/* XPM */
static char *_2088453d6e34324bb4de4c2fe10434cRemitE1Ze0UXndhS[] = {
/* columns rows colors chars-per-pixel */
"64 64 184 2 ",
"   c black",
" . c #00000D",
" X c #000026",
" o c #00002D",
" O c #1F1F28",
" + c #0B0B30",
" @ c #00003B",
" # c #202020",
" $ c #2C2C2C",
" % c #242434",
" & c #282838",
" * c gray22",
" = c #000043",
" - c #00004B",
" ; c #131341",
" : c #1C1C47",
" > c #000053",
" , c #00005C",
" < c #141454",
" 1 c #1D1D52",
" 2 c #1C1C5B",
" 3 c #282844",
" 4 c #292947",
" 5 c #353543",
" 6 c #3E3E4C",
" 7 c #262656",
" 8 c #2B2B54",
" 9 c #2C2C5B",
" 0 c #3F3F54",
" q c #000064",
" w c #020269",
" e c #0F0F6B",
" r c #151562",
" t c #1E1E6B",
" y c #000073",
" u c #0B0B77",
" i c #02027A",
" p c #09097F",
" a c #14147B",
" s c #262666",
" d c #23236A",
" f c #2D2D6E",
" g c #323260",
" h c #3A3A67",
" j c #323268",
" k c #232373",
" l c #24247D",
" z c #363677",
" x c #3C3C7A",
" c c gray25",
" v c #43434F",
" b c #484848",
" n c #4A4A55",
" m c #434358",
" M c #4C4C5C",
" N c gray33",
" B c gray36",
" V c #444462",
" C c #4B4B61",
" Z c #48486B",
" A c #595965",
" S c #5C5C6B",
" D c #444472",
" F c #4C4C76",
" G c #59597D",
" H c #646464",
" J c #64646E",
" K c #69697A",
" L c gray44",
" P c #7C7C7C",
" I c #000084",
" U c #090982",
" Y c #00008C",
" T c #0B0B8B",
" R c #151583",
" E c #13138B",
" W c #1A1A8B",
" Q c #000093",
" ! c #0B0B94",
" ~ c #000099",
" ^ c #09099D",
" / c #141495",
" ( c #1D1D92",
" ) c #14149B",
" _ c #1B1B9B",
" ` c #272781",
" ' c #2C2C80",
" ] c #383888",
" [ c #2E2E99",
" { c #38389E",
" } c #0000A5",
" | c #0A0AA3",
".  c #0000AB",
".. c #0C0CAF",
".X c #1616A4",
".o c #1C1CA2",
".O c #1515AD",
".+ c #1B1BAC",
".@ c #0B0BB6",
".# c #0E0EB9",
".$ c #1414B4",
".% c #1B1BB3",
".& c #1313BD",
".* c #1A1ABC",
".= c #2121A5",
".- c #2424AD",
".; c #3D3DA1",
".: c #3F3FA9",
".> c #2323B4",
"., c #2424BE",
".< c #2F2FBA",
".1 c #3737B7",
".2 c #3333BC",
".3 c #474786",
".4 c #4F4F8A",
".5 c #505082",
".6 c #5D5D80",
".7 c #444493",
".8 c #4E4E9E",
".9 c #525294",
".0 c #585897",
".q c #5B5B9B",
".w c #67678A",
".e c #7B7B84",
".r c #75758A",
".t c #7A7A8C",
".y c #62629A",
".u c #707091",
".i c #77779B",
".p c #4747A2",
".a c #4B4BA7",
".s c #4D4DAE",
".d c #5656AE",
".f c #5F5FA9",
".g c #4E4EB7",
".h c #4646BF",
".j c #4E4EBB",
".k c #5353B5",
".l c #5C5CBF",
".z c #6262A2",
".x c #7676A2",
".c c #7272AF",
".v c #6868B3",
".b c #6868BB",
".n c #7A7AB8",
".m c #1515C0",
".M c #1A1AC5",
".N c #1E1EC9",
".B c #2020C5",
".V c #2B2BC1",
".C c #2121CC",
".Z c #2A2ACC",
".A c #3333C5",
".S c #3D3DC4",
".D c #3333CB",
".F c #3B3BCD",
".G c #2525D0",
".H c #2929D4",
".J c #2E2ED9",
".K c #3434D5",
".L c #3C3CD2",
".P c #3232DA",
".I c #4242C1",
".U c #4D4DC4",
".Y c #4343CD",
".T c #4A4ACA",
".R c #5A5AC5",
".E c #4242D5",
".W c #4C4CD3",
".Q c #4545DC",
".! c #4D4DDA",
".~ c #5151D3",
".^ c #5B5BD6",
"./ c #5353DB",
".( c #5959DC",
".) c #6666D1",
"._ c #6464DB",
".` c #7070DA",
".' c #5454E0",
".] c #5C5CE2",
".[ c #6565E0",
".{ c #6868E1",
".} c gray55",
".| c #878799",
/ *pixels */
" $ $ $ $ $ $ $ $ $ $ $ $ $ $ $ $ $ $ $ $ $ $ $ $ $ $ $ $ $ $ $ $ $ $ $ $ $ $ $ $ $ $ $ $ $ $ $ $ $ $ $ $ $ $ $ $ $ $ $ $ $ $ $ $",
" $ $ $ $ $ $ $ $ $ $ # # # # # # # # # #   $ b H P P L L L L L L P H b     P P P P P P P P P P P P P P P P # $ $ $ $ $ $ $ $ $ $",
" # # # # # # # # # * b * b b b b b b b       $ H b b b b b b H b L P b     b L L L P L L L L L L P L L L P # $   # # # # # # # #",
" b b b b b b b b b H L P P P P P P P b       $ b H b H b H b b H H P H     * b L L P P L L P L L L L P L P # $   b b b b b b b b",
" P P P P P P P P P P P P L P P P P P b       $ b b b H H H H b b H P b     $ * H H N H H H H b H H H H L P # $   b * H P P P P P",
" H b H b b b H b b H H H b H b H L P b       $ $ b H b b H b H H b H #     $ b H H b H N H H H H H H N P.} # #   b * b H N L b b",
" H H H H b H b b H b b b N b H b L P b         # H H b H b b H b b * #     $ b H N b N N N b H N H b H L.} # #   $ * H H H L P H",
" H P N b H H P H b * N H * N b H L P b         # b H H b b H H H b # #     $ * b H N b * b H H H b N b L.} #     $ * N b L L P N",
" N H H N b b b H N N * N * b H b P P *                 # # # # * # $ #     $ b H b b N b N b H b H N H P P #     $ * b H H b L b",
" b N b N b b N b P N N N N b b b L P # # #                         #       * $ b H b b b b N b b H H H.} H #     $ * N b b L H H",
" b b H b H b * b N b b b H b H b L P # $ #                         #       $ N H N H N H N b * N b H b P b #     # # b N N N b N",
" * * * * * * $ $ $ $ $ * * * b b b L # $   b N H H H H b * b # # # #       * b N * b b N H * * * N b H P b #     # # $ b b b b b",
" $ $ $ $ $ $ $ $ $ $ # # # $ * * b b # $   $ b N L L P.} P P H H b #       $ N H b * H N N N N b N b L P # $         # $ * * * *",
" # # # # # # # # # # # # # # #             # b b H N H b L L P P H         $ b b N N N b H b * N H N L H # $           $ $ # # #",
"                                             $ b b b b N b H P P H #       $ $ N H b * b * b N H N H L b # $                    ",
" # # # # # # # # # # # # #   $ $ $ $ #       $ H b H b B B B H.} H #     # b $ H N H b H N H b N H N P b # $                    ",
" N N N N N N N N N N N * $ # $ P P.q.p.2.>.>.A.Z.:.8 A H H B b.} H #     $ $ b Z.7.s.Y.A.F.F.D.1.7.u P # $     N N N N N N N N N",
" P P P P P P P P P P P P * #  .f.(.!.L.$. . .#.*.C.N.Z [ A H H L H #     O F.j.Y.L.L.Z.N.m.&.M.N.B.K.> : $     b L L P P P P P P",
" L L L L L L L L L L L P N %.:.W.K.H.H. . . .#.#.#.M.&.&.= m H L H #     x.T.F.*.M.N.M.C.N.C.C.N.C.N.* | 7     L b H H N H b N H",
" N N b N b H N H N H L P N.k.2.B.m.H.H.&. . . .@.@.@.@.@.% W v b H     +.U.,.&.m.@.M.@.@.m.N.N.m.M.N.@.. U .   b b b b H N H b H",
" b b * b N b B b B b H P.0.T...m.C.C.H.&. . . . . . . . .@ ^ < b b     ].2. . . . . .@.@.@.@.#.#.#.&.@.# ! =   $ b N H N H N N H",
" N N b N B H B H B H b P.l.<. .M.M.C.H.O I Y. ... . . . .  } y $       {.>. . . . .  Q i Q. ... . . .@.# | >   $ b N N H N H b H",
" b b c c N b N b N N H.t.^.&. .&.M.C.H.= 7   w.V.&.m.m.M.C.C ! 0 b O #.j.*.@.@.@. .  i X   w.%. . .@.#.# } q   $ b H N b * * H b",
" N b c c b H b H b N H.i.T.@. .m.M.C.H _ 4   ;.Y.N.H.H.H.H.H [.6 P L P.{.Z.C.&.&.@.  u b H L.(.H.H.H.H.M.  w   # * N H b * * b b",
" b H b H b b N b N H b.x.W.@. .M.M.M.H ( 0   +.T.M.H.H.H.H.H.o.6 P L P.[.J.J.H.#.@.# w N N H.^.M.N.N.H.H.  w   # * b N N H H N b",
" b b * b * * $ $ $ * b.4.S.@. .@.C.M.N ( v   +.T.#.N.M.M.C.N.o g N H b.Z / _.= / T T q H N.q./.C.N.M.C.H } w     $ b N H N N H N",
" $ $ $ # # # # # # # # d.2.#. .#.N.N.C W v   +.T.#.N.M.C.M.M ) D H * b H H H.} N # #   *.b.~.K.N.C.C.C.H ~ ,       # $ * * * * *",
" #                     d.2.#. .#.m.C.N ( v   +.T.#.N.N.N.N.M.o g b H N N H N.} N # # ;.g.Y.Z.Z.C.M.N.N.H Y -               # # $",
"                       d.2.#. .#.N.N.N ( v   +.T.@.M.M.m.N.N.X h * b b H N N.} N # s.I.A.B.C.M.C.*.N.C.H U ; # # # #            ",
"       $ $ $ $ $ $ $ # z.S.#. .#.C.C.N ( v   +.T.#.N.M.M.&.N ) h b * N b b H.} N ].I.>.&.M.M.C.M.M.N.C.- , O b b b b N b b * * #",
" $ # # # # # $ * b L P.c.W.@. .#.C.N.M W v   +.T.@.M.N.m.#.M ! 7 N b H N N P.e.k.I.$. .&.m.C.m.M.M.C.+ W X b H L L L P P P L b *",
" $   N P P P P P P L b.0.!.@. .#.N.M.C W v   +.I.#.&.M.N.M.M ) 9 N * N b H.t.).Y.*. .@.M.N.C.M.M.N.X R.r   # H N H H L P L L L *",
" $   * b N H N N H H N.q.!.@. .@.m.C.m [ v   +.I.@.M.M.N.m.m.o h N N N H K.`.!.*. . .@.M.C.M.C.B _ ` M.}   H b N N H b H H L P *",
" O   * N H N H H N N H.z./.@. .m.N.C.N W v # +.I.@.M.M.N.m.# ) 7 b N H J.).'.Z.@. . .#.&.m.C.* _ k v N.}   b H N N b H b N L P *",
" #   * H N b b b B H N.z.!.@. .#.N.N.N W v # +.1.@.#.N.m.N.M ) g N H b.v./.P.M.#. . .#.&.C.% R f H H H P   $ H * H H N H N H P *",
" #   $ H b b N b b N b.y.!.@. .#.@.G.N E v # +.I. .m.M.N.m.N ) h N * n._.L.H.M.@. . .#.&.X E D * N b P P   $ b H N H N N H L P *",
"     $ N b N H B N H b.y.W.@. . . .#.m E 5 # +.I. .#.&.m.M.N ) D N H.5.(.H.G.#.@. . .@ ! R D b H N b P P   $ N b H N H H b L P *",
"     $ $ $ $ $ $ $ $ # x.Y. .@.@. . .  y & # +.I. . . . .@.@ ! 7 * *.9.W.H.m.#. .  } T d S D.~.A.L.F.Q.E.$ R N H N N N H H L P *",
"                       d.2.#.#.#.#.@.@ u & # +.I. . . . . .  I @ # $.8.F.M.@.#. .  ~ e b b F.(.N.M.M.H.N ~ r N * N N H H N L P *",
"                     # z.S.@.@.@.@.@.@ U % # 4.I. . . . . .  I @    .;.>. .@.@. .  Y 1 * H F.~.C.N.N.H.m ~ r b H b H B N b L P *",
" $   * * * * * * * * * D.Y.&.&.&.&.&.& U 3 # 4.T.@.@.@.@.@.@ T @    .;.$.@.@.@. .  I 1 * b.w.W.N.C.M.J.# Q r H B H B N H H L P *",
" $   * P P P P P P P L.i.(.H.H.H.H.G.Z ) V N C.~.#.&.&.&.&.& T 8 * *.a.V.&.m. . .  Q 2 b H.5.W.M.M.C.J.@ I 2 b N H N H B b L P *",
" #   * N L L P P.}.}.}.|.].K.J.J.J.J.J.,.9 L.c./.H.H.H.H.H.Z W K P P.b.Q.H.&. . .  } E 5 b.d.F.C.N.C.J.@ I @ $ H N H N H H L L *",
" #   $ * L P P L P P H P.^.K.H.H.H.H.H.H.J.Q.].Q.J.H.J.J.H.B `.}.}.}.n.Q.H.#. . . . ...m.W.Y.Z.&.N.M.J.@ y o $ b H H b H N L L *",
"     $ b H B H N H N b N.q.F.C.M.m.N.N.N.G.C.H.H.H.C.H.H.B _ G P P P.w./.H.&. . . . .#.&.M.m.N.M.N.N.H | q . $ b b b H b H L P *",
"     $ b B H H H N H b N H.I.C.N.*.N.N.C.C.N.M.M.C.C.N.B ) t N b b b L.R.K.*. . . . .#.M.M.N.M.N.M.M.B p @   $ b b b b H b b P #",
"     $ b H N H B H B N N N v.-.C.C.m.N.M.C.N.N.M.M.C.* / l M H b N b P.r.S.$... . . .#.m.m.M.C.M.*.+ W <       $ $ $ b H H H L #",
"     $ b N b N * H c c b H b N.7.%.$.m.N.N.M.N.$.% / R s b N b N H H L P L q ~ ~. ...@.&.M.*.$.X ) l V O       $ $ $ $ $ * * * #",
"     $ b * * b H b b N * b N H B N.3 '.o / / / T k j H b N H B H N N L P H     > > Y T T ! T a 9 8 * * # #     $ $ $ $         #",
"     $ b * * N b * N H b N b N * b b H * N b N c N b b 6 H B H N N L L L b                               #               # $ $ $",
"     $ b N b b b N H N N H N H b b * b b b * b b H H N H N b b b b N N N b                               #         # # # # # # #",
"     $ * * * * * * * * * * * * * * * * * * * * * * b b $ # # #         # $                               $ # # * b N H H H H * #",
"     # $ $ $ $ $ $ $ $ $ $ $ $ $ $ $ $ $ $ $ $ $ $ $ #               # # $ #                     # $ * b b H H P P P P P P P H #",
" #     # # # # # # # # # # # # # # # # # # # # # #         # # # # # $ $ * * b * * b b b H H H H H H H H P P P P L P b H H P H #",
" # #                                                     # $ # b H H H H H P P L L P P P P P P P P P P P P P H b L L H H H P H #",
" $ # # #                                           # # # $ #   * P L P P P P L H H N H b H H b H b H b H * b N H N * b B H P H #",
" $ $ $ $ # # # # # # # # # # # # $ $ $ # # # * H P P H # $     * * H H H N H b H N b N * H b * N H b b H N b N B b b B H H L H #",
" $ # # * N L P L P P P P P P P N # $ $ L P P P P H H P # #     $ * H H N N H N N b H b N * b * N * b N H H b H N * * B b H P H #",
" $   N P H b H N B b B b B H H P * $ * L L L L L L L P #       # $ * * * * * * * * * * * * * * * * * * * * * * * * * * * * b H #",
" $   $ H b H b H b B B B b B b H L # * b N L N L L H L #       # # # # # # # # # # # # # # # # # # # # # # # # # # # # # # * b #",
" $   $ b b H B B H B N H H N N H P # * * * * $ $   #   #                                                                       #",
" $   $ $ $ $ $ $ $ $ $ $ $ $ $ $ $               # $ $                                                                       # $",
" $                             $ $           # # $ $ $                                                   # # # # # # # # $ $ $ $",
" * * * * * * * * * * * * * * * * * * * * * * * * * * * * * * * * * * * * * * * * * * * * * * * * * * * * * * * * * * * * * * * *"
};